<?xml version="1.0" encoding="utf-8"?>
<!-- Generator: Adobe Illustrator 27.5.0, SVG Export Plug-In . SVG Version: 6.00 Build 0)  -->
<svg version="1.1" xmlns="http://www.w3.org/2000/svg" xmlns:xlink="http://www.w3.org/1999/xlink" x="0px" y="0px"
	 viewBox="0 0 1886 2387" style="enable-background:new 0 0 1886 2387;" xml:space="preserve">
<g id="Capa_1">
	<path style="fill:#1A1F24;" d="M1071.532,2087.772c-4.846,19.774-14.296,62.715-7.428,71.873
		c8.99,11.986,71.96,26.143,103.88,31.464c32.962,5.493,77.272,0.85,85.344-4.415c8.547-5.574,14.719-25.226,2.784-30.482
		c-11.936-5.257-55.665-25.534-73.146-35.522c-19.217-10.982-32.96-23.736-41.896-33.736
		C1117.547,2096.015,1087.954,2091.54,1071.532,2087.772z"/>
	<path style="fill:#242A31;" d="M776.664,2097.14c-6.414,35.505-19.266,109.706-16.974,121.946c1.748,9.334-1.88,48.46,51.093,49.09
		c56.45,0.672,58.649-17.848,61.795-29.318c5.516-20.112-14.487-124.764-18.996-147.75
		C829.308,2104.26,796.715,2101.062,776.664,2097.14z"/>
	<path style="fill:#EF7853;" d="M1063.318,504.267c-0.777-0.967-1.676-1.77-2.718-2.425c-20.474-12.865-44.641-20.747-61.87-25.181
		c-3.65,4.843-29.478,38.335-49.528,43.661c1.485,43.38,2.426,72.975,3.966,117.752c0.028,0.793-0.593,1.457-1.385,1.485
		c-0.793,0.027-1.457-0.593-1.485-1.386c-1.535-44.628-2.474-74.168-3.95-117.301c-0.369,0.047-0.743,0.112-1.107,0.137
		c-58.65,3.91-122.998-42.85-125.724-44.852c-34.096,6.407-89.733,20.428-109.713,46.152c-0.015,0.081-0.024,0.157-0.039,0.237
		c-10.626,9.79-47.957,77.913-84.904,132.309c1.15,2.024,2.39,4.019,3.663,6.001c18.688,29.082,49.864,53.531,72.661,69.281
		c3.783,2.614,7.352,5.007,10.576,7.122c3.355-4.411,6.858-9.295,10.42-14.494c-0.32,0.035-0.653-0.016-0.944-0.207
		c-0.663-0.435-0.848-1.325-0.413-1.988c19.106-29.116,38.213-58.233,57.319-87.349c4.767-7.254,9.498-14.568,11.513-22.678
		c0.883-3.542,1.24-7.18,1.24-10.87c0.001-5.332-0.749-10.766-1.716-16.119c-4.727-26.177-14.336-51.471-28.182-74.185
		c-0.413-0.677-0.198-1.561,0.479-1.974c0.677-0.412,1.561-0.198,1.973,0.479c14.032,23.018,23.765,48.641,28.555,75.169
		c0.98,5.431,1.761,11.029,1.762,16.63c0,3.873-0.375,7.751-1.326,11.564c-2.185,8.737-7.14,16.297-11.898,23.559
		c-13.197,20.111-26.394,40.222-39.591,60.333c0.007,0.061,0.016,0.118,0.023,0.179c6.475,55.683,12.86,106.709,10.67,169.039
		l34.54,47.413c0,0,17.155,16.155,23.71,26.455c6.555,10.301,1.311,35.21-8.241,42.701c-9.552,7.491-25.658,11.237-31.838,12.173
		c-6.18,0.936-25.283-0.374-26.033-5.805c-0.264-1.911,3.206-3.769,7.781-5.383c-1.994-1.358-3.57-3.301-3.287-6.042
		c0.193-1.863,3.118-3.366,6.851-4.547c-0.973-0.975-1.565-2.177-1.382-3.656c0.195-1.577,3.177-2.847,6.964-3.841
		c-4.734-5.925-9.352-12.714-10.373-17.734c-0.755-3.713-0.066-6.61,0.644-8.419c-1.627-1.107-3.849-2.626-6.577-4.511
		c-10.452,54.802-30.101,117.846-22.909,126.237c0.594,0.693,2.69,1.332,6.019,1.921c47.072,8.328,348.166,6.376,356.563-3.419
		c0.03-0.034,0.052-0.086,0.08-0.122c8.786-10.852-8.713-81.873-10.568-131.726c-2.208-59.328,1.181-103.763,3.693-145.657
		c1.205-20.1,2.194-39.641,2.277-59.925c24.396-16.81,41.731-38.225,54.158-57.659c1.228-1.92,2.415-3.823,3.549-5.698
		C1121.321,614.868,1095.362,527.646,1063.318,504.267z"/>
	<path style="fill:#242A31;" d="M959.869,1220.746c0,0-8.065,74.138-19.612,179.025l32.976,133.317c0,0-1.959,95.65,1.037,127.613
		c2.996,31.963,84.84,423.731,84.84,423.731s4.799,1.591,12.422,3.34c16.422,3.768,46.015,8.243,69.538-0.819
		c5.502-2.12,10.682-4.954,15.269-8.741c3.338-9.514-64.767-901.959-66.265-961.89
		C1090.074,1116.322,1030.288,1187.784,959.869,1220.746z"/>
	<path style="fill:#313942;" d="M727.519,1061.309c-6.074,22.364-10.981,47.924-10.377,70.849
		c2.077,78.955,11.823,340.348,20.339,496.573c9.26,169.874,13.875,427.092,20.965,463.901c0,0,7.234,2.359,18.218,4.508
		c20.052,3.922,52.644,7.12,76.918-6.032c2.313-1.253,4.559-2.639,6.703-4.204c4.928-10.561,52.389-436.597,79.972-687.133
		c11.548-104.887,19.612-179.025,19.612-179.025c70.419-32.962,130.205-104.423,130.205-104.423l-0.324-3.208l-5.589-55.346
		c-0.029,0.036-0.051,0.088-0.08,0.122C1075.685,1067.685,774.591,1069.637,727.519,1061.309z"/>
	<path style="fill:#F4A29E;" d="M1028.481,277.557c-8.653-3.006-20.065-2.139-21.202-3.003c-4.865-3.701-3.899-10.779,2.015-12.725
		c0.99-0.378,10.099,0.874,19.114,4.461c2.257,0.892,4.316,1.84,5.967,3.041l0.116,0.121c-0.044-6.997-0.081-13.535-0.048-19.433
		c-1.815-16.489-6.646-47.526-17.784-55.132c-38.956,39.329-97.763,58.807-127.728,50.192c-12.788,5.519,3.586,55.644-12.385,66.004
		c-0.877-5.582-4.825-25.452-16.766-26.917c-5.868-0.72-12.962,6.958-12.074,21.168c0.94,15.052,8.282,26.841,14.135,27.457
		c3.363,0.354,5.979-0.169,8.022-1.234c0.649,12.543,1.972,27.974,1.309,39.401c-0.374,20.604-3.005,44.247-10.268,67.876
		c10.163,8.752,43.982,35.498,74.848,32.734c22.327-1.999,33.5-8.433,38.488-12.502c-3.681-20.352-2.74-45.229-2.74-45.229
		s27.456,2.82,44.16-7.944c17.565-11.319,18.711-93.217,18.826-107.115c0.076-6.419,0.078-12.704,0.058-18.788
		C1032.957,279.339,1031.071,278.432,1028.481,277.557z"/>
	<path style="fill:#583636;" d="M869.864,331.556c-2.044,1.065-4.659,1.588-8.023,1.234c-5.853-0.615-13.195-12.405-14.135-27.457
		c-0.888-14.21,6.206-21.888,12.074-21.168c11.942,1.465,15.888,21.335,16.766,26.917c15.971-10.36-0.404-60.486,12.385-66.004
		c29.965,8.615,88.772-10.863,127.728-50.192c11.138,7.606,15.968,38.643,17.784,55.132c0.688,6.247,0.945,10.417,0.945,10.417
		s15.891-36.363,2.996-79.034c18.728-15.732,26.22-47.945,11.986-60.68c-14.234-12.735-78.659,38.581-130.35,13.11
		c-14.028-6.913-20.975,22.099-20.975,22.099s-7.492-7.866-20.602-3.746s-46.821,37.457-49.817,71.917
		c-2.305,26.503,7.491,38.206,7.491,38.206s-1.984,25.984,2.247,46.446c6.735,32.567,23.85,61.833,32.749,63.373
		c0.027-0.376,0.037-0.785,0.06-1.17C871.835,359.529,870.513,344.098,869.864,331.556z"/>
	<path style="fill:#583636;" d="M1028.408,266.289c-9.014-3.586-18.124-4.838-19.114-4.461c-5.913,1.947-6.881,9.024-2.015,12.726
		c1.137,0.865,12.548-0.003,21.201,3.003c2.591,0.875,4.477,1.781,6.063,2.431c0.101,0.041,0.213,0.091,0.311,0.13
		c1.645,0.653,1.495-8.922-0.364-10.667c-0.039-0.037-0.075-0.091-0.116-0.121C1032.724,268.129,1030.665,267.182,1028.408,266.289z
		"/>
	<path style="fill:#583636;" d="M921.592,283.283c3.477-1.632,5.681-3.538,15.511-5.677c10.22-2.305,23.098-0.52,24.498-1.292
		c5.997-3.304,5.778-10.448-0.709-12.868c-1.08-0.457-11.601,0.06-22.305,2.915c-10.717,2.838-16.852,8.568-17.739,9.856
		C917.991,280.315,919.546,284.243,921.592,283.283z"/>
	<path style="fill:#DF8080;" d="M857.167,289.237c-0.511-0.607-1.417-0.684-2.023-0.174c-0.607,0.511-0.684,1.416-0.173,2.023
		l0.086,0.106c0.845,1.026,7.261,9.395,8.714,20.657c-0.022-0.025-0.038-0.054-0.061-0.079c-1.687-1.859-4.074-3.267-6.86-3.272
		c-0.661,0-1.338,0.081-2.018,0.251c-0.77,0.193-1.237,0.972-1.045,1.741c0.193,0.77,0.972,1.237,1.741,1.045
		c0.455-0.114,0.894-0.165,1.321-0.166c1.772-0.004,3.446,0.916,4.735,2.331c1.285,1.402,2.095,3.274,2.166,4.755
		c0.013,0.239,0.098,0.45,0.212,0.642c-0.001,0.011,0,0.02-0.001,0.031c-0.064,0.79,0.525,1.483,1.315,1.547
		c0.79,0.064,1.483-0.524,1.547-1.315c0.082-1.007,0.12-1.999,0.12-2.975C866.913,300.756,857.248,289.362,857.167,289.237z"/>
	<path style="fill:#DF8080;" d="M986.638,335.792c1.369,0.886,3.057,1.112,4.908,1.126c2.419-0.003,5.136-0.477,7.56-1.202
		c2.43-0.751,4.517-1.655,5.836-2.944c0.559-0.562,0.555-1.472-0.008-2.03c-0.563-0.559-1.472-0.555-2.03,0.008
		c-0.583,0.628-2.456,1.585-4.624,2.216c-2.175,0.656-4.695,1.085-6.733,1.081c-1.557,0.015-2.82-0.286-3.315-0.643
		c-0.66-0.44-1.551-0.262-1.991,0.398C985.8,334.461,985.978,335.352,986.638,335.792L986.638,335.792z"/>
	<path style="fill:#DF8080;" d="M1000.102,324.266c0.604-0.514,0.676-1.421,0.162-2.024c-5.443-6.358-8.263-16.399-8.366-25.2
		c-0.01-0.793-0.662-1.427-1.454-1.417c-0.793,0.011-1.427,0.662-1.417,1.455c0.138,9.357,3.007,19.898,9.051,27.025
		C998.592,324.708,999.498,324.78,1000.102,324.266z"/>
	<path style="fill:#CC4031;" d="M1062.727,544.903c-0.766,0.205-1.222,0.992-1.017,1.758l0,0
		c3.616,13.512,6.615,34.389,9.419,62.282c-0.119,0.507-0.214,1.018-0.338,1.524c-0.152,0.616,0.131,1.223,0.64,1.543
		c2.535,25.801,4.922,57.354,7.472,94.633c0.054,0.792,0.739,1.389,1.531,1.335c0.791-0.054,1.388-0.74,1.334-1.531
		c-2.645-38.573-5.099-71.016-7.735-97.338c4.132-17.862,5.084-36.123,5.085-54.363c0-4.661-0.061-9.322-0.143-13.974
		c-0.014-0.793-0.668-1.424-1.461-1.41c-0.793,0.014-1.424,0.668-1.41,1.461c0.082,4.642,0.142,9.286,0.142,13.923
		c0.001,15.077-0.669,30.079-3.212,44.781c-2.54-23.416-5.283-41.362-8.549-53.607
		C1064.28,545.154,1063.493,544.699,1062.727,544.903z"/>
	<path style="fill:#583636;" d="M1017.525,303.633c3.103,0,5.618-3.312,5.618-7.397c0-4.086-2.515-7.398-5.618-7.398
		c-3.103,0-5.619,3.312-5.619,7.398C1011.907,300.321,1014.422,303.633,1017.525,303.633z"/>
	<path style="fill:#583636;" d="M946.357,295.752c0,4.766,2.935,8.63,6.555,8.63c3.62,0,6.555-3.864,6.555-8.63
		c0-4.767-2.935-8.631-6.555-8.631C949.292,287.121,946.357,290.985,946.357,295.752z"/>
	<path style="fill:#583636;" d="M963.218,354.042c-0.226,0.76,0.207,1.559,0.967,1.786c0.926,0.268,2.279,0.439,4.153,0.611
		c5.571,0.497,15.369,0.777,24.865,0.777c5.672,0,11.225-0.1,15.688-0.318c2.232-0.109,4.191-0.247,5.771-0.42
		c1.594-0.182,2.751-0.36,3.633-0.684c0.741-0.282,1.113-1.111,0.831-1.853c-0.282-0.741-1.112-1.113-1.853-0.831
		c-0.336,0.139-1.448,0.359-2.923,0.514c-4.485,0.493-12.697,0.723-21.146,0.721c-6.289,0-12.729-0.125-17.927-0.353
		c-2.599-0.113-4.888-0.253-6.682-0.413c-1.779-0.154-3.123-0.357-3.59-0.504C964.243,352.849,963.443,353.282,963.218,354.042z"/>
	<path style="fill:#F4A29E;" d="M1307.511,509.522c-2.06-3.184-7.328-1.523-7.328-1.523s-0.85-6.718-2.598-8.216
		c-1.748-1.498-8.054,2.435-8.054,2.435s0.437-7.242-1.311-8.24c-1.748-0.999-8.053,2.435-8.053,2.435s13.623-48.058,10.176-49.818
		c-3.447-1.759-27.469,43.45-27.469,43.45s-10.987-1.498-15.981,4.495c-4.653,5.583-8.005,54.07-8.442,60.683
		c-0.032,0.486-0.049,0.746-0.049,0.746l-92.892,150.576c0,0-4.687-19.722-11.79-43.745c-12.426,19.435-29.761,40.849-54.158,57.659
		c-0.083,20.284-1.072,39.826-2.277,59.925c10.336,21.802,24.644,39.853,44.252,43.774c44.948,8.99,94.391-45.697,110.872-88.398
		c10.699-27.719,44.077-160.759,44.077-160.759s20.003-26.431,24.844-35.702C1310.133,522.445,1308.978,511.79,1307.511,509.522z"/>
	<path style="fill:#DF8080;" d="M1301.072,527.838c-0.745-0.271-1.569,0.113-1.84,0.858c-0.722,1.984-1.885,4.683-4.059,7.718
		c-0.512,0.717-1.128,1.442-1.738,1.933c-0.618,0.502-1.176,0.729-1.606,0.722l-0.391-0.055c-0.466-0.138-0.786-0.436-1.092-1.074
		c-0.291-0.624-0.448-1.527-0.445-2.399l0.024-0.612c0.213-2.774,1.051-5.507,2.428-7.923l-2.492-1.426
		c-3.069,5.373-6.404,10.748-11.481,13.096c-0.471,0.226-1.049,0.38-1.41,0.373c-0.349-0.013-0.391-0.07-0.443-0.125
		c-0.047-0.028-0.165-0.35-0.183-0.89v-0.002l-0.02-0.726c-0.025-5.162,3.06-10.228,6.25-15.048l-0.003-0.002
		c0.016-0.028,0.036-0.052,0.053-0.08l-2.449-1.497c-0.127,0.194-0.255,0.395-0.383,0.591c-1.565,2.665-3.425,5.159-5.585,7.371
		c-1.463,1.516-3.069,2.747-4.66,2.902l-0.286,0.016c-0.661,0.006-1.421-0.263-1.934-0.675c-0.525-0.422-0.764-0.885-0.763-1.344
		l0.002-0.06c0.02-0.438-0.171-0.826-0.47-1.104c0.455-2.453,0.702-4.944,0.702-7.439c0-0.451-0.066-0.899-0.081-1.349
		c1.698,1.361,3.714,2.755,6.317,2.788l0.393-0.012c1.975-0.119,3.643-1.16,4.81-2.539c1.173-1.388,1.913-3.137,2.088-4.95
		l0.001-0.002l0.047-1.01c-0.009-3.109-1.267-5.932-2.605-8.406c-3.156-5.808-7.424-11.002-12.512-15.224
		c-0.61-0.506-1.516-0.422-2.022,0.188c-0.506,0.61-0.421,1.516,0.189,2.022c4.804,3.986,8.843,8.9,11.822,14.385
		c1.265,2.316,2.265,4.745,2.256,7.035l-0.034,0.744c-0.108,1.194-0.639,2.45-1.417,3.36c-0.785,0.919-1.753,1.471-2.793,1.532
		l-0.222,0.007c-1.673,0.039-3.558-1.285-5.368-2.835c-0.481-0.402-0.951-0.809-1.425-1.213c-0.135-0.191-0.312-0.336-0.519-0.442
		c-2.627-2.264-5.078-4.602-6.797-7.367c-0.42-0.673-1.306-0.878-1.978-0.458c-0.673,0.419-0.879,1.305-0.458,1.978
		c1.949,3.116,4.554,5.6,7.204,7.89c0.135,1.289,0.234,2.583,0.234,3.88c0,4.885-0.952,9.776-2.801,14.294
		c-0.3,0.734,0.051,1.572,0.785,1.873s1.572-0.051,1.873-0.785c0.487-1.191,0.913-2.406,1.283-3.637
		c0.157,0.158,0.31,0.322,0.482,0.456c1.048,0.82,2.354,1.287,3.713,1.292l0.604-0.033c1.682-0.202,3.063-0.962,4.266-1.875
		c-0.417,1.54-0.673,3.131-0.679,4.784l0.024,0.886v-0.002c0.048,0.672,0.104,1.632,0.822,2.546c0.72,0.894,1.802,1.198,2.671,1.184
		c0.986-0.006,1.872-0.295,2.628-0.643c3.039-1.437,5.429-3.633,7.447-6.132l-0.015,0.397c0.003,1.183,0.182,2.439,0.705,3.594
		c0.508,1.141,1.48,2.243,2.926,2.643c0.389,0.11,0.784,0.163,1.169,0.162c1.366-0.006,2.504-0.628,3.414-1.362
		c0.916-0.745,1.658-1.649,2.264-2.492c2.363-3.296,3.648-6.273,4.424-8.409C1302.202,528.933,1301.817,528.109,1301.072,527.838z"
		/>
	<path style="fill:#DF8080;" d="M1144.527,707.448c-0.715-0.342-1.572-0.041-1.915,0.674c-8.995,18.774-13.671,39.576-13.671,60.386
		c0,4.437,0.213,8.874,0.642,13.292c0.076,0.789,0.779,1.368,1.568,1.291c0.789-0.077,1.367-0.779,1.291-1.568
		c-0.42-4.325-0.629-8.67-0.629-13.015c-0.001-20.379,4.583-40.768,13.389-59.145
		C1145.544,708.648,1145.242,707.79,1144.527,707.448z"/>
	<path style="fill:#CC4031;" d="M945.241,521.009c0.364-0.024,0.738-0.09,1.107-0.137c1.476,43.133,2.415,72.673,3.951,117.301
		c0.027,0.793,0.692,1.413,1.484,1.386c0.793-0.027,1.413-0.692,1.385-1.485c-1.54-44.778-2.481-74.372-3.966-117.752
		c20.05-5.327,45.878-38.818,49.528-43.662c0.286-0.379,0.449-0.6,0.449-0.6l-21.476-20.476c0,0-0.976,1.451-3.463,3.48
		c-4.988,4.069-16.161,10.502-38.488,12.501c-30.865,2.764-64.685-23.982-74.847-32.734c-1.968-1.694-3.063-2.725-3.063-2.725
		s-9.989,16.981-19.478,26.469c-9.489,9.489-18.978,13.485-18.978,13.485s0.071,0.052,0.131,0.096
		C822.243,478.16,886.592,524.919,945.241,521.009z"/>
	<path style="fill:#CC4031;" d="M966.467,556.219c3.723,0,6.742-4.472,6.742-9.989c0-5.516-3.018-9.989-6.742-9.989
		c-3.724,0-6.742,4.472-6.742,9.989C959.724,551.747,962.743,556.219,966.467,556.219z"/>
	<path style="fill:#CC4031;" d="M969.214,591.678c3.724,0,6.742-4.472,6.742-9.989c0-5.516-3.019-9.988-6.742-9.988
		s-6.742,4.472-6.742,9.988C962.471,587.206,965.49,591.678,969.214,591.678z"/>
	<path style="fill:#CC4031;" d="M971.461,631.632c3.724,0,6.742-4.472,6.742-9.989s-3.018-9.989-6.742-9.989
		c-3.724,0-6.742,4.472-6.742,9.989S967.737,631.632,971.461,631.632z"/>
	<path style="fill:#DF8080;" d="M968.071,413.874c0.184-0.772-0.292-1.546-1.063-1.73h-0.001
		c-28.19-6.72-55.435-21.292-71.854-44.892c-0.453-0.651-1.348-0.811-1.999-0.358c-0.651,0.454-0.811,1.348-0.358,1.999
		c16.98,24.376,44.873,39.201,73.544,46.044C967.112,415.122,967.886,414.646,968.071,413.874z"/>
	<path style="fill:#DF8080;" d="M1000.281,364.157c-4.077,1.87-8.588,2.966-13.005,2.965c-2.847,0-5.653-0.452-8.3-1.433
		c-0.744-0.276-1.57,0.104-1.845,0.848c-0.276,0.743,0.104,1.57,0.847,1.845c2.999,1.112,6.148,1.612,9.298,1.612
		c4.891-0.001,9.784-1.202,14.202-3.226c0.721-0.331,1.037-1.183,0.707-1.904C1001.854,364.143,1001.002,363.826,1000.281,364.157z"
		/>
	<path style="fill:#D56C60;" d="M760.714,963.816c-3.787,0.994-6.769,2.263-6.964,3.84c-0.182,1.48,0.409,2.682,1.382,3.656
		c-3.733,1.18-6.658,2.684-6.851,4.547c-0.283,2.741,1.293,4.684,3.287,6.042c8.433-2.975,20.686-5.105,20.686-5.105
		S766.399,970.931,760.714,963.816z"/>
	<path style="fill:#F4A29E;" d="M809.898,938.215c-6.555-10.3-23.71-26.455-23.71-26.455l-34.54-47.413l-69.635-95.59l19.172-38.62
		c-22.796-15.75-53.973-40.199-72.661-69.281c-26.735,34.693-59.371,85.696-50.11,118.355
		c12.876,45.404,131.006,129.761,165.994,153.94c2.728,1.885,4.95,3.405,6.577,4.511c-0.711,1.809-1.399,4.706-0.644,8.419
		c1.021,5.021,5.639,11.809,10.373,17.734c5.685,7.115,11.54,12.98,11.54,12.98s-12.253,2.131-20.686,5.105
		c-4.576,1.614-8.045,3.472-7.781,5.383c0.749,5.431,19.852,6.742,26.033,5.805c6.18-0.936,22.286-4.682,31.838-12.173
		C811.208,973.425,816.452,948.516,809.898,938.215z"/>
	<path style="fill:#DF8080;" d="M678.838,765.812c-13.852-16.417-34.876-26.47-56.351-26.943c-0.793-0.017-1.45,0.612-1.467,1.404
		c-0.017,0.793,0.611,1.449,1.404,1.467c20.619,0.442,40.928,10.153,54.218,25.923c0.511,0.606,1.417,0.683,2.023,0.172
		C679.272,767.324,679.35,766.418,678.838,765.812L678.838,765.812z"/>
	<path style="fill:#CC4031;" d="M723.225,722.146c5.91-9.006,11.819-18.011,17.729-27.017c13.197-20.11,26.394-40.222,39.59-60.333
		c4.759-7.262,9.714-14.822,11.899-23.559c0.95-3.813,1.325-7.69,1.325-11.564c-0.001-5.601-0.782-11.198-1.762-16.63
		c-4.79-26.529-14.524-52.151-28.555-75.169c-0.413-0.677-1.296-0.892-1.973-0.479c-0.677,0.413-0.891,1.296-0.479,1.973
		c13.846,22.714,23.454,48.008,28.182,74.186c0.967,5.353,1.717,10.786,1.716,16.119c0,3.689-0.357,7.328-1.24,10.87
		c-2.015,8.11-6.746,15.424-11.513,22.678c-19.106,29.117-38.213,58.233-57.319,87.35c-0.435,0.663-0.25,1.553,0.413,1.988
		c0.291,0.191,0.624,0.242,0.944,0.207C722.592,722.72,722.981,722.519,723.225,722.146z"/>
</g>
<g id="Capa_2">
</g>
</svg>
